<?xml version="1.0" standalone="no"?>
<!DOCTYPE svg PUBLIC "-//W3C//DTD SVG 20010904//EN"
 "http://www.w3.org/TR/2001/REC-SVG-20010904/DTD/svg10.dtd">
<svg version="1.0" xmlns="http://www.w3.org/2000/svg"
 width="500.000000pt" height="500.000000pt" viewBox="0 0 500.000000 500.000000"
 preserveAspectRatio="xMidYMid meet">

<g transform="translate(0.000000,500.000000) scale(0.100000,-0.100000)"
fill="#000000" stroke="none">
<path d="M0 2500 l0 -2500 2500 0 2500 0 0 2500 0 2500 -2500 0 -2500 0 0
-2500z m1453 2196 c45 -19 104 -84 120 -131 11 -31 20 -41 43 -46 61 -12 116
-53 143 -106 6 -13 20 -23 31 -23 33 0 126 -39 146 -62 32 -35 153 -108 213
-128 290 -96 387 -183 385 -345 0 -35 -8 -73 -17 -92 -36 -68 -130 -110 -227
-101 l-50 5 0 -46 c0 -115 22 -327 45 -436 30 -146 64 -247 114 -341 44 -80
220 -304 291 -367 131 -118 336 -228 504 -272 l58 -15 51 45 c29 25 76 54 105
65 63 24 174 27 223 6 45 -19 88 -65 104 -111 l13 -38 73 -2 c139 -4 304 -22
340 -38 20 -8 49 -32 65 -53 28 -37 29 -40 29 -159 0 -119 -1 -122 -29 -159
-34 -45 -95 -75 -176 -86 -32 -5 -79 -18 -105 -29 -36 -16 -68 -21 -132 -21
-84 0 -85 0 -78 -22 17 -57 24 -123 24 -249 l1 -136 153 -7 c188 -9 215 -15
260 -65 40 -45 53 -100 44 -183 -10 -84 -88 -158 -167 -158 -38 0 -39 -18 -1
-58 17 -19 46 -35 73 -42 32 -8 59 -25 89 -56 l44 -45 0 -98 c0 -91 -2 -100
-27 -133 -51 -67 -49 -67 -492 -67 -344 -1 -403 2 -432 15 -31 15 -37 15 -74
0 -57 -23 -401 -23 -458 -1 -34 14 -42 14 -74 1 -31 -13 -112 -15 -528 -15
-472 0 -494 1 -532 20 -49 25 -75 68 -84 135 -7 62 15 151 46 179 16 14 20 30
20 74 -1 55 -1 55 -14 26 -20 -45 -80 -94 -126 -101 -45 -7 -46 -8 -25 -57 28
-68 14 -162 -32 -218 -46 -55 -69 -59 -319 -59 -214 0 -228 1 -265 22 -62 34
-89 85 -89 164 0 74 16 117 60 159 l30 29 0 277 c0 246 -2 278 -17 290 -9 8
-29 32 -45 53 -25 35 -28 47 -28 115 0 95 25 146 85 176 38 19 59 20 430 19
418 -1 411 -2 490 51 24 17 46 20 131 20 121 0 144 -12 183 -89 24 -48 24 -54
22 -263 l-2 -213 48 29 c26 16 59 32 73 36 14 4 30 11 35 15 30 21 112 32 217
28 101 -3 118 -6 158 -30 25 -15 58 -41 74 -57 l28 -30 49 39 c27 21 75 48
106 60 52 19 74 21 203 18 115 -3 152 -7 178 -21 32 -17 32 -17 32 6 0 13 -14
36 -31 53 -17 16 -37 41 -45 56 -18 36 -18 155 0 191 l15 27 -153 0 c-84 0
-188 4 -232 9 -43 6 -142 17 -219 26 -182 21 -302 47 -450 97 -194 65 -340
146 -525 294 -136 108 -193 163 -268 264 -31 41 -59 77 -63 80 -13 9 -161 242
-197 309 -112 209 -195 415 -232 581 -27 114 -73 285 -85 314 -7 17 -22 49
-32 71 -13 30 -19 70 -21 161 -3 115 -2 124 23 175 15 30 44 74 64 99 21 25
41 59 45 75 10 41 50 91 97 122 25 16 39 33 39 47 0 11 11 45 25 74 21 46 25
68 25 153 0 67 5 109 14 127 20 37 64 78 106 96 46 20 218 21 263 2z"/>
<path d="M1275 4539 c-57 -33 -59 -75 -5 -133 22 -24 40 -51 40 -59 0 -9 -24
-35 -52 -58 -67 -52 -71 -60 -53 -95 8 -16 15 -37 15 -47 0 -30 -54 -75 -104
-88 -65 -16 -98 -73 -64 -107 6 -6 10 -13 7 -15 -2 -2 -25 -18 -51 -35 -90
-61 -117 -165 -69 -260 26 -53 65 -181 111 -372 85 -345 251 -673 491 -965
180 -220 449 -405 716 -495 149 -49 297 -77 504 -95 317 -28 689 -9 854 43 54
17 106 26 160 27 46 1 95 8 115 17 19 9 59 19 89 22 30 4 69 13 88 21 30 13
33 17 33 59 0 59 -16 67 -127 64 -57 -2 -100 2 -121 11 -29 12 -35 12 -52 -4
-15 -13 -30 -16 -72 -11 -29 3 -89 9 -133 12 -44 3 -84 10 -89 14 -4 4 10 31
33 60 58 73 53 100 -18 100 -34 0 -61 -18 -138 -93 l-63 -61 -70 12 c-239 41
-545 197 -710 362 -85 85 -231 268 -282 352 -75 126 -151 386 -172 593 -18
175 -35 507 -26 529 17 46 43 50 135 21 92 -30 149 -35 167 -17 18 18 -10 61
-60 93 -40 25 -190 87 -252 104 -14 4 -54 24 -90 45 -36 21 -75 41 -87 45 -12
3 -25 14 -28 25 -10 31 -31 41 -122 62 -48 10 -93 24 -100 30 -7 6 -13 25 -13
42 0 48 -15 56 -99 56 -42 0 -82 4 -89 9 -16 9 -18 39 -7 92 6 29 3 40 -16 63
-27 31 -91 44 -124 25z m83 -31 c26 -26 13 -38 -38 -38 -54 0 -59 4 -33 32 18
21 53 24 71 6z m132 -202 c0 -9 -30 -14 -35 -6 -4 6 3 10 14 10 12 0 21 -2 21
-4z m50 -100 c30 -11 34 -17 35 -49 1 -23 -3 -38 -12 -41 -28 -11 -93 51 -93
89 0 18 22 18 70 1z m-85 -56 c4 -6 -11 -10 -37 -9 -33 0 -38 2 -23 9 28 12
53 12 60 0z m241 -56 c-4 -9 -1 -23 5 -30 14 -17 -2 -19 -18 -3 -9 9 -12 4
-11 -18 2 -64 -32 -71 -79 -16 -29 34 -34 36 -46 22 -10 -14 -23 -15 -77 -9
-36 4 -56 8 -45 9 11 1 63 15 115 31 112 34 165 38 156 14z m397 -124 c-2 -49
-45 -84 -134 -110 -90 -27 -276 -60 -338 -60 -28 0 -67 -10 -99 -25 -64 -30
-62 -30 -62 -7 0 27 -44 64 -71 60 -32 -4 -37 -34 -7 -42 13 -3 34 -15 48 -25
l25 -20 -45 -19 c-77 -34 -87 -35 -93 -12 -4 16 -11 20 -29 16 -13 -3 -35 -7
-50 -11 -19 -4 -28 -12 -28 -25 0 -30 -51 -26 -89 6 -36 30 -39 47 -11 67 11
8 17 17 13 20 -14 15 -55 6 -78 -18 -20 -19 -25 -34 -25 -75 0 -59 -14 -59
-31 1 -11 35 -10 43 8 67 22 30 80 61 130 69 28 5 33 3 33 -14 0 -30 43 -64
88 -70 46 -6 62 9 38 36 -9 10 -14 25 -11 34 4 10 -1 17 -14 22 -37 11 -23 21
57 39 42 10 145 37 227 61 126 37 246 65 276 65 4 0 6 -15 5 -32 -1 -30 2 -33
33 -36 31 -3 33 -1 29 20 -3 13 -9 31 -13 41 -7 16 0 17 106 15 l114 -3 -2
-35z m235 -85 c4 -16 2 -16 -22 1 -32 23 -33 36 -3 25 12 -5 24 -16 25 -26z
m-334 -81 c21 -8 39 -79 32 -119 -8 -41 -46 -57 -46 -19 0 33 -16 30 -35 -6
-32 -63 -10 -164 28 -126 8 9 17 21 20 28 3 10 9 8 23 -5 16 -15 19 -31 17
-110 -1 -51 2 -102 9 -114 6 -13 8 -37 3 -60 -5 -24 -10 -33 -14 -23 -3 8 -15
15 -25 15 -21 0 -34 -24 -19 -34 5 -3 15 -15 21 -26 10 -17 11 -18 12 -2 0 16
30 24 43 11 9 -9 -4 -34 -18 -34 -16 0 -25 -23 -24 -63 0 -18 3 -26 6 -19 2 6
8 10 13 7 4 -3 7 3 6 13 0 9 6 17 14 17 9 0 17 -16 23 -45 4 -25 24 -100 43
-168 32 -113 34 -124 19 -144 -19 -28 -19 -48 0 -48 18 0 55 -40 71 -78 l12
-27 1 25 c1 24 4 23 44 -21 23 -25 59 -73 79 -106 21 -33 58 -83 83 -111 25
-27 45 -59 45 -71 0 -50 127 -150 245 -193 36 -12 65 -26 65 -30 0 -5 7 -8 16
-8 9 0 38 -20 65 -44 48 -43 134 -77 158 -62 6 4 15 -2 20 -12 7 -12 39 -27
91 -42 44 -12 80 -27 80 -31 0 -35 -137 -10 -292 52 -105 42 -160 49 -209 23
-30 -15 -31 -15 -24 5 9 28 2 26 -39 -9 -36 -32 -61 -32 -71 1 -8 25 -41 42
-68 35 -26 -6 -62 18 -52 34 4 6 2 17 -5 25 -7 9 -8 15 0 20 21 13 9 23 -37
30 l-48 8 33 11 33 11 -79 78 c-69 67 -97 85 -206 138 -69 34 -126 62 -126 63
0 2 13 1 28 -2 40 -5 58 19 42 57 -15 38 -58 77 -94 85 -31 8 -96 53 -96 67 0
5 11 11 25 15 57 14 53 60 -13 134 -46 51 -60 49 -38 -5 22 -53 19 -69 -4 -18
-29 65 -100 98 -100 46 0 -13 -3 -14 -12 -5 -7 7 -22 12 -34 12 -29 0 -54 35
-54 74 0 22 -12 42 -42 73 l-42 43 37 0 c59 0 59 18 2 96 -6 9 -6 17 2 25 9 9
17 1 32 -29 25 -49 37 -58 56 -42 11 9 18 10 29 1 11 -9 15 -5 20 20 7 38 0
52 -58 109 -38 36 -46 41 -46 25 -1 -17 -3 -15 -16 8 -21 39 -27 34 -20 -18 6
-38 5 -44 -8 -39 -11 4 -16 0 -16 -12 -1 -22 -68 -77 -83 -67 -5 3 -7 28 -3
61 l7 55 -23 -16 c-19 -12 -22 -22 -20 -56 3 -35 0 -41 -16 -41 -36 0 -32 -14
14 -61 45 -45 46 -48 29 -65 -23 -23 -43 -10 -60 40 -7 21 -26 51 -41 67 -17
18 -24 34 -20 44 4 12 -6 29 -34 54 l-40 37 34 33 34 33 21 -21 c22 -22 27
-41 11 -41 -13 0 -13 -56 0 -81 6 -10 20 -19 31 -19 20 0 21 5 17 75 -2 48 0
71 6 65 27 -27 63 2 51 41 -5 14 -1 19 14 19 40 0 16 32 -46 64 -37 19 -45 6
-15 -27 17 -19 16 -20 -6 -8 -22 12 -23 11 -17 -9 6 -20 5 -21 -16 -10 -20 11
-21 10 -16 -10 4 -17 2 -20 -11 -14 -9 4 -30 8 -45 8 -41 1 -82 66 -43 66 8 0
21 12 28 27 10 21 24 29 56 36 61 12 73 41 42 106 -12 27 -19 54 -16 60 4 6
22 10 41 9 44 -2 113 29 120 53 5 14 16 19 39 19 23 0 38 7 48 22 14 20 17 21
62 8 51 -14 66 -9 46 16 -12 13 -11 17 1 24 17 11 101 30 132 30 12 0 29 5 37
10 18 12 15 11 34 4z m-599 -234 c10 -16 -15 -40 -39 -39 -17 1 -17 2 -3 6 23
6 21 18 -5 31 -22 10 -21 11 9 11 17 1 35 -4 38 -9z m-158 -46 c-3 -4 -14 -3
-24 0 -15 6 -15 8 -3 16 16 10 39 -4 27 -16z m3 -124 c13 -8 13 -10 -2 -10 -9
0 -20 5 -23 10 -8 13 5 13 25 0z m-120 -55 c0 -8 -2 -15 -4 -15 -2 0 -6 7 -10
15 -3 8 -1 15 4 15 6 0 10 -7 10 -15z m110 5 c0 -5 -4 -10 -9 -10 -6 0 -13 5
-16 10 -3 6 1 10 9 10 9 0 16 -4 16 -10z m-35 -201 c14 -39 9 -49 -13 -27 -19
19 -14 -2 8 -29 11 -14 26 -47 34 -72 8 -25 17 -55 21 -66 7 -18 6 -18 -7 -5
-13 13 -50 89 -115 238 -18 44 1 32 28 -16 20 -36 20 -36 15 -7 -3 17 -8 41
-11 55 -6 24 -5 24 10 -3 9 -16 23 -46 30 -68z m430 -221 c8 -46 31 -98 43
-98 4 0 16 -13 25 -30 24 -41 12 -39 -102 18 -89 45 -137 89 -117 109 4 4 34
-2 66 -14 49 -18 61 -19 70 -8 8 10 8 19 1 34 -13 24 -14 31 -2 31 5 0 12 -19
16 -42z m-356 -97 c5 -19 9 -36 7 -38 -4 -4 -43 69 -50 97 l-7 25 19 -24 c11
-14 25 -40 31 -60z m81 -131 c29 -36 57 -76 64 -90 6 -14 23 -35 38 -48 15
-13 38 -53 53 -93 23 -60 33 -73 60 -85 19 -8 46 -32 62 -56 16 -24 38 -47 51
-53 12 -5 22 -13 22 -17 0 -17 74 -88 91 -88 22 0 97 -65 87 -75 -33 -34 -270
168 -357 304 -28 44 -51 85 -51 91 0 6 -7 18 -16 27 -29 29 -193 283 -167 258
6 -5 34 -39 63 -75z m391 8 c39 -11 53 -28 24 -28 -14 0 -19 -11 -16 -37 1 -7
-4 -13 -11 -13 -7 0 1 -13 17 -29 42 -41 75 -87 75 -103 0 -8 6 -20 13 -27 6
-8 -25 6 -70 30 -58 31 -79 47 -72 55 7 8 0 19 -21 34 -17 12 -29 28 -26 35 2
7 -4 21 -15 31 -19 17 -19 17 1 31 11 8 25 11 32 7 8 -5 9 -2 5 9 -8 20 10 22
64 5z m240 -229 c23 -11 39 -23 36 -26 -6 -5 -97 33 -97 41 0 11 21 6 61 -15z
m-78 -120 c31 -12 57 -25 57 -30 0 -15 -66 -21 -111 -9 -56 15 -89 36 -89 57
0 13 7 14 43 9 23 -3 68 -16 100 -27z m179 -47 c-17 -5 -85 31 -90 47 -2 7 20
-1 50 -16 29 -15 48 -29 40 -31z m44 43 c15 -11 16 -14 3 -15 -8 0 -24 7 -35
15 -15 11 -16 14 -3 15 8 0 24 -7 35 -15z m171 -157 c-1 -17 6 -25 33 -36 l35
-13 -39 5 c-73 9 -122 66 -56 66 25 0 29 -4 27 -22z m-181 -13 c18 -13 18 -14
-4 -8 -12 3 -25 9 -28 14 -8 14 10 11 32 -6z m-15 -225 c81 -43 368 -156 430
-169 92 -19 96 -20 29 -15 -89 7 -213 37 -301 73 -41 17 -68 30 -61 30 24 1 1
22 -51 45 -61 27 -127 66 -111 66 6 0 35 -13 65 -30z m752 -20 c3 -10 -1 -27
-8 -37 -10 -14 -16 -15 -28 -5 -8 7 -22 10 -31 6 -25 -10 -19 12 10 35 33 26
50 27 57 1z m707 -18 c65 -14 6 -21 -121 -15 -109 6 -120 8 -103 21 15 11 38
12 104 7 47 -3 101 -9 120 -13z m-644 -7 c-23 -17 -36 -19 -36 -6 0 11 18 19
40 20 11 0 10 -3 -4 -14z m1047 -2 c-13 -2 -35 -2 -50 0 -16 2 -5 4 22 4 28 0
40 -2 28 -4z m-1460 -68 c33 -7 62 -17 65 -21 11 -11 -84 4 -120 20 -42 18
-19 19 55 1z m545 -85 c59 1 102 -2 102 -8 0 -27 -217 -29 -400 -2 l-125 18
160 -5 c88 -3 206 -4 263 -3z"/>
<path d="M1927 3972 c-29 -31 -19 -42 17 -19 33 21 38 37 12 37 -7 0 -20 -8
-29 -18z"/>
<path d="M1593 3931 c-41 -10 -83 -38 -83 -54 0 -8 2 -9 8 -1 9 15 65 28 122
28 33 1 45 5 45 16 0 18 -43 22 -92 11z"/>
<path d="M1425 3860 c-11 -17 5 -30 36 -30 18 0 29 5 29 14 0 23 -53 36 -65
16z"/>
<path d="M1370 3849 c0 -5 5 -7 10 -4 6 3 10 8 10 11 0 2 -4 4 -10 4 -5 0 -10
-5 -10 -11z"/>
<path d="M1574 3515 c9 -39 19 -54 45 -68 34 -21 51 -17 32 7 -7 8 -10 19 -7
24 3 6 -6 18 -21 28 -15 9 -35 27 -45 38 -16 20 -16 19 -4 -29z"/>
<path d="M1642 3534 c1 -9 9 -19 16 -22 9 -3 13 2 10 14 -1 9 -9 19 -16 22 -9
3 -13 -2 -10 -14z"/>
<path d="M1528 3433 c-41 -10 -11 -56 51 -78 72 -25 80 -18 31 25 -48 43 -48
50 1 24 17 -8 38 -14 47 -12 12 3 4 11 -25 26 -40 21 -68 25 -105 15z"/>
<path d="M1910 3430 c0 -8 5 -22 10 -30 9 -13 10 -13 10 0 0 8 -5 22 -10 30
-9 13 -10 13 -10 0z"/>
<path d="M1580 3270 c6 -11 15 -18 21 -14 6 4 6 11 -2 20 -17 21 -31 17 -19
-6z"/>
<path d="M1810 3255 c0 -8 5 -15 10 -15 6 0 10 7 10 15 0 8 -4 15 -10 15 -5 0
-10 -7 -10 -15z"/>
<path d="M1876 3235 c-10 -49 1 -95 30 -130 24 -29 25 -30 40 -10 9 12 12 28
9 40 -4 11 -9 33 -12 50 -3 16 -12 35 -19 43 -8 7 -14 20 -14 28 0 30 -28 13
-34 -21z"/>
<path d="M1550 3191 c0 -12 5 -21 10 -21 6 0 10 6 10 14 0 8 -4 18 -10 21 -5
3 -10 -3 -10 -14z"/>
<path d="M2061 3024 c0 -11 3 -14 6 -6 3 7 2 16 -1 19 -3 4 -6 -2 -5 -13z"/>
<path d="M2096 2862 c-3 -5 2 -27 11 -48 l18 -39 3 34 c4 34 -20 73 -32 53z"/>
<path d="M2155 2691 c-3 -5 -1 -12 5 -16 5 -3 10 1 10 9 0 18 -6 21 -15 7z"/>
<path d="M2250 2561 c13 -25 33 -28 28 -4 -2 10 -11 19 -21 21 -16 3 -17 1 -7
-17z"/>
<path d="M2330 2455 c0 -24 41 -85 58 -85 6 0 12 2 12 5 0 14 -30 62 -49 79
-20 18 -21 18 -21 1z"/>
<path d="M1795 1461 c-49 -26 -91 -55 -93 -64 -2 -10 11 -23 36 -36 22 -11 43
-28 48 -38 10 -21 18 -702 9 -751 -4 -24 -16 -39 -41 -54 -25 -15 -34 -27 -32
-42 3 -20 7 -21 158 -18 85 2 159 8 164 12 16 16 -3 39 -41 49 -84 23 -77 -20
-83 513 -4 410 -7 473 -20 475 -8 1 -55 -20 -105 -46z"/>
<path d="M3463 1461 c-51 -25 -95 -52 -98 -59 -3 -8 8 -20 27 -30 57 -31 66
-45 73 -124 4 -40 5 -214 3 -386 l-3 -314 -25 -18 c-49 -37 -60 -50 -53 -65 5
-14 25 -15 162 -9 86 3 160 10 164 14 17 15 -6 38 -44 44 -60 10 -79 35 -79
105 0 54 3 62 31 85 17 14 34 26 38 26 4 0 33 -37 64 -82 30 -46 79 -109 107
-140 l52 -58 83 0 c102 0 138 11 133 42 -2 17 -14 24 -55 33 -33 8 -66 24 -90
45 -45 40 -143 160 -173 212 l-20 36 37 36 c56 54 133 95 194 103 49 7 54 11
57 36 l3 27 -125 2 c-230 4 -211 5 -214 -19 -3 -17 3 -24 25 -29 38 -9 54 -23
45 -39 -12 -22 -164 -145 -179 -145 -10 0 -13 66 -13 348 0 336 -3 376 -29
371 -4 -1 -47 -22 -98 -48z"/>
<path d="M912 1411 c-3 -8 4 -21 17 -30 12 -9 37 -28 54 -43 l32 -26 0 -369
c0 -404 0 -404 -60 -429 -19 -7 -37 -19 -41 -25 -17 -28 23 -34 202 -29 170 5
179 6 179 25 0 16 -13 23 -64 37 -36 10 -68 23 -73 30 -4 7 -8 91 -8 186 l0
172 88 0 c103 0 123 -10 148 -75 14 -37 21 -45 38 -43 20 3 21 11 28 148 5 93
4 148 -3 155 -16 16 -42 -8 -52 -46 -13 -53 -29 -59 -144 -59 l-103 0 2 178 3
177 122 3 c155 3 182 -6 218 -77 17 -35 32 -51 44 -51 25 0 29 15 33 119 l3
83 -329 2 c-276 1 -329 -1 -334 -13z"/>
<path d="M2319 1016 c-113 -46 -153 -83 -141 -129 3 -10 15 -23 28 -27 38 -15
80 7 119 61 21 30 43 49 54 49 37 0 70 -19 86 -49 18 -36 20 -114 3 -129 -7
-6 -51 -20 -97 -32 -157 -40 -231 -95 -231 -171 0 -52 23 -95 63 -119 47 -29
137 -27 205 5 67 31 73 31 102 0 32 -34 74 -32 140 8 74 44 76 71 5 75 -27 2
-53 9 -57 15 -4 7 -8 94 -8 194 0 100 -4 193 -10 207 -25 67 -152 87 -261 42z
m159 -373 c3 -67 1 -73 -21 -88 -34 -22 -116 -29 -146 -13 -28 15 -44 60 -31
92 11 29 52 56 110 72 80 22 85 19 88 -63z"/>
<path d="M2929 1020 c-76 -40 -110 -112 -90 -188 15 -53 54 -86 173 -145 117
-59 143 -88 114 -132 -25 -39 -82 -50 -149 -31 -44 13 -64 26 -95 63 -55 63
-72 56 -72 -31 0 -94 12 -101 190 -101 129 0 138 1 173 25 52 35 81 98 73 157
-9 71 -35 96 -159 158 -61 31 -119 63 -129 72 -26 23 -22 58 8 82 51 40 140
20 190 -43 18 -22 38 -36 51 -36 35 0 35 5 8 127 -7 30 -54 43 -159 43 -70 -1
-99 -5 -127 -20z"/>
</g>
</svg>
